<svg viewBox="0 0 1200 1050" xmlns="http://www.w3.org/2000/svg" role="img" font-family="Inter, system-ui, -apple-system, sans-serif">
  <title>bistec-studio Entity Relationship Diagram</title>
  <desc>ERD for the Prisma data model: User, Project, Campaign, Brief, Draft, Post, M:N joins, BrandKit with Templates/Prompts/Artifacts, AvailableProvider config, and DraftRevision for AGUI undo</desc>

  <defs>
    <marker id="dot" markerWidth="7" markerHeight="7" refX="3.5" refY="3.5">
      <circle cx="3.5" cy="3.5" r="2.5" fill="#64748b"/>
    </marker>
  </defs>

  <rect width="1200" height="1050" fill="#f8fafc"/>

  <!-- Title -->
  <text x="600" y="34" text-anchor="middle" font-size="16" font-weight="700" fill="#0f172a">bistec-studio — Entity Relationship Diagram</text>
  <text x="600" y="52" text-anchor="middle" font-size="11" fill="#64748b">Prisma schema · Project ↔ Campaign ↔ Brief → Draft → Post · BrandKit owns Templates, Prompts, Artifacts · DraftRevision tracks AGUI edits</text>

  <!-- ═══════════ RELATIONSHIP LINES ═══════════ -->
  <g stroke="#94a3b8" stroke-width="1.4" fill="none">
    <!-- User → Brief -->
    <path d="M610,112 L680,112 L680,190" marker-end="url(#dot)"/>
    <!-- User → Post (routed right) -->
    <path d="M670,86 L1100,86 L1100,470 L1080,470" marker-end="url(#dot)"/>
    <!-- Project → ProjectCampaign -->
    <path d="M150,356 L150,400 L215,400 L215,430" marker-end="url(#dot)"/>
    <!-- Campaign → ProjectCampaign -->
    <path d="M355,356 L355,400 L255,400 L255,430" marker-end="url(#dot)"/>
    <!-- Campaign → Brief -->
    <path d="M545,300 L590,300" marker-end="url(#dot)"/>
    <!-- Brief → Draft -->
    <path d="M815,272 L865,272" marker-end="url(#dot)"/>
    <!-- Draft → Post -->
    <path d="M975,352 L975,400" marker-end="url(#dot)"/>
    <!-- Draft → DraftRevision -->
    <path d="M975,352 L975,520 L1080,520 L1080,550" marker-end="url(#dot)"/>
    <!-- Campaign → CampaignDraft -->
    <path d="M420,356 L420,470 L590,470" marker-end="url(#dot)"/>
    <!-- Draft → CampaignDraft -->
    <path d="M890,352 L890,486 L790,486" marker-end="url(#dot)"/>
    <!-- Project → BrandKit (defaultBrandKit) -->
    <path d="M80,356 L80,600 L120,600 L120,620" marker-end="url(#dot)"/>
    <!-- Campaign → BrandKit (brandKit) -->
    <path d="M355,356 L355,600 L200,600 L200,620" marker-end="url(#dot)"/>
    <!-- BrandKit → BrandKitTemplate -->
    <path d="M200,740 L200,800 L280,800 L280,820" marker-end="url(#dot)"/>
    <!-- BrandKit → BrandKitPrompt -->
    <path d="M280,715 L340,715" marker-end="url(#dot)"/>
    <!-- BrandKit → BrandKitArtifact -->
    <path d="M200,740 L200,900 L340,900" marker-end="url(#dot)"/>
  </g>

  <!-- Cardinality labels -->
  <g font-size="10" font-weight="700" fill="#475569" text-anchor="middle">
    <rect x="603" y="104" width="14" height="14" rx="3" fill="#f8fafc"/><text x="610" y="115">1</text>
    <rect x="685" y="178" width="14" height="14" rx="3" fill="#f8fafc"/><text x="692" y="189">∞</text>

    <rect x="663" y="79" width="14" height="14" rx="3" fill="#f8fafc"/><text x="670" y="90">1</text>
    <rect x="1093" y="463" width="14" height="14" rx="3" fill="#f8fafc"/><text x="1100" y="474">∞</text>

    <rect x="143" y="370" width="14" height="14" rx="3" fill="#f8fafc"/><text x="150" y="381">1</text>
    <rect x="348" y="370" width="14" height="14" rx="3" fill="#f8fafc"/><text x="355" y="381">1</text>
    <rect x="208" y="416" width="14" height="14" rx="3" fill="#f8fafc"/><text x="215" y="427">∞</text>
    <rect x="262" y="416" width="14" height="14" rx="3" fill="#f8fafc"/><text x="269" y="427">∞</text>

    <rect x="549" y="285" width="14" height="14" rx="3" fill="#f8fafc"/><text x="556" y="296">1</text>
    <rect x="575" y="285" width="16" height="14" rx="3" fill="#f8fafc"/><text x="583" y="296">∞</text>

    <rect x="820" y="257" width="14" height="14" rx="3" fill="#f8fafc"/><text x="827" y="268">1</text>
    <rect x="845" y="257" width="16" height="14" rx="3" fill="#f8fafc"/><text x="853" y="268">∞</text>

    <rect x="958" y="362" width="14" height="14" rx="3" fill="#f8fafc"/><text x="965" y="373">1</text>
    <rect x="982" y="384" width="16" height="14" rx="3" fill="#f8fafc"/><text x="990" y="395">∞</text>

    <rect x="426" y="372" width="14" height="14" rx="3" fill="#f8fafc"/><text x="433" y="383">1</text>
    <rect x="575" y="463" width="16" height="14" rx="3" fill="#f8fafc"/><text x="583" y="474">∞</text>
    <rect x="897" y="362" width="14" height="14" rx="3" fill="#f8fafc"/><text x="904" y="373">1</text>
    <rect x="804" y="479" width="16" height="14" rx="3" fill="#f8fafc"/><text x="812" y="490">∞</text>

    <rect x="968" y="484" width="14" height="14" rx="3" fill="#f8fafc"/><text x="975" y="495">1</text>
    <rect x="1073" y="542" width="16" height="14" rx="3" fill="#f8fafc"/><text x="1081" y="553">∞</text>

    <!-- Project → BrandKit -->
    <rect x="73" y="362" width="16" height="14" rx="3" fill="#f8fafc"/><text x="81" y="373">∞</text>
    <rect x="113" y="596" width="14" height="14" rx="3" fill="#f8fafc"/><text x="120" y="607">1</text>
    <!-- Campaign → BrandKit -->
    <rect x="348" y="362" width="16" height="14" rx="3" fill="#f8fafc"/><text x="356" y="373">∞</text>
    <rect x="193" y="596" width="14" height="14" rx="3" fill="#f8fafc"/><text x="200" y="607">1</text>
    <!-- BrandKit → Template -->
    <rect x="193" y="735" width="14" height="14" rx="3" fill="#f8fafc"/><text x="200" y="746">1</text>
    <rect x="273" y="810" width="16" height="14" rx="3" fill="#f8fafc"/><text x="281" y="821">∞</text>
    <!-- BrandKit → Prompt -->
    <rect x="272" y="710" width="14" height="14" rx="3" fill="#f8fafc"/><text x="279" y="721">1</text>
    <rect x="326" y="710" width="16" height="14" rx="3" fill="#f8fafc"/><text x="334" y="721">∞</text>
    <!-- BrandKit → Artifact -->
    <rect x="193" y="735" width="14" height="14" rx="3" fill="#f8fafc"/><text x="200" y="746">1</text>
    <rect x="326" y="890" width="16" height="14" rx="3" fill="#f8fafc"/><text x="334" y="901">∞</text>
  </g>

  <!-- ═══════════ ENTITIES (top + middle) ═══════════ -->

  <!-- USER -->
  <g>
    <rect x="470" y="60" width="200" height="78" rx="8" fill="#fff" stroke="#cbd5e1" stroke-width="1.2"/>
    <path d="M470,68 Q470,60 478,60 L662,60 Q670,60 670,68 L670,86 L470,86 Z" fill="#475569"/>
    <text x="480" y="79" font-size="12" font-weight="700" fill="#fff">User</text>
    <text x="480" y="104" font-size="11" font-weight="700" fill="#0f172a">id</text><text x="660" y="104" text-anchor="end" font-size="9" font-weight="700" fill="#0284c7">PK</text>
    <text x="480" y="121" font-size="11" fill="#334155">clerkId</text><text x="660" y="121" text-anchor="end" font-size="9" fill="#94a3b8">unique</text>
    <text x="480" y="135" font-size="11" fill="#334155">role</text><text x="660" y="135" text-anchor="end" font-size="9" fill="#94a3b8">ADMIN | EDITOR</text>
  </g>

  <!-- PROJECT -->
  <g>
    <rect x="45" y="230" width="210" height="126" rx="8" fill="#fff" stroke="#cbd5e1" stroke-width="1.2"/>
    <path d="M45,238 Q45,230 53,230 L247,230 Q255,230 255,238 L255,256 L45,256 Z" fill="#0284c7"/>
    <text x="55" y="249" font-size="12" font-weight="700" fill="#fff">Project</text>
    <text x="55" y="274" font-size="11" font-weight="700" fill="#0f172a">id</text><text x="245" y="274" text-anchor="end" font-size="9" font-weight="700" fill="#0284c7">PK</text>
    <text x="55" y="292" font-size="11" fill="#334155">name</text>
    <text x="55" y="310" font-size="11" fill="#334155">defaultBrandKitId</text><text x="245" y="310" text-anchor="end" font-size="9" fill="#64748b">FK ?</text>
    <text x="55" y="328" font-size="11" fill="#334155">defaultTone</text><text x="245" y="328" text-anchor="end" font-size="9" fill="#94a3b8">?</text>
    <text x="55" y="346" font-size="11" fill="#334155">isDeleted · deletedAt</text>
  </g>

  <!-- CAMPAIGN -->
  <g>
    <rect x="315" y="230" width="210" height="126" rx="8" fill="#fff" stroke="#cbd5e1" stroke-width="1.2"/>
    <path d="M315,238 Q315,230 323,230 L517,230 Q525,230 525,238 L525,256 L315,256 Z" fill="#0284c7"/>
    <text x="325" y="249" font-size="12" font-weight="700" fill="#fff">Campaign</text>
    <text x="325" y="274" font-size="11" font-weight="700" fill="#0f172a">id</text><text x="515" y="274" text-anchor="end" font-size="9" font-weight="700" fill="#0284c7">PK</text>
    <text x="325" y="292" font-size="11" fill="#334155">name</text>
    <text x="325" y="310" font-size="11" fill="#334155">brandKitId</text><text x="515" y="310" text-anchor="end" font-size="9" fill="#64748b">FK ? override</text>
    <text x="325" y="328" font-size="11" fill="#334155">defaultTone</text><text x="515" y="328" text-anchor="end" font-size="9" fill="#94a3b8">?</text>
    <text x="325" y="346" font-size="11" fill="#334155">isDeleted · deletedAt</text>
  </g>

  <!-- BRIEF -->
  <g>
    <rect x="590" y="190" width="225" height="216" rx="8" fill="#fff" stroke="#cbd5e1" stroke-width="1.2"/>
    <path d="M590,198 Q590,190 598,190 L807,190 Q815,190 815,198 L815,216 L590,216 Z" fill="#0284c7"/>
    <text x="600" y="209" font-size="12" font-weight="700" fill="#fff">Brief</text>
    <text x="600" y="234" font-size="11" font-weight="700" fill="#0f172a">id</text><text x="805" y="234" text-anchor="end" font-size="9" font-weight="700" fill="#0284c7">PK</text>
    <text x="600" y="252" font-size="11" fill="#334155">userId</text><text x="805" y="252" text-anchor="end" font-size="9" fill="#64748b">FK</text>
    <text x="600" y="270" font-size="11" fill="#334155">campaignId</text><text x="805" y="270" text-anchor="end" font-size="9" fill="#64748b">FK ? (null=Uncat.)</text>
    <text x="600" y="288" font-size="11" fill="#334155">topic · description</text>
    <text x="600" y="306" font-size="11" fill="#334155">goal · tone · channels[]</text>
    <text x="600" y="324" font-size="11" fill="#334155">designMode</text><text x="805" y="324" text-anchor="end" font-size="9" fill="#94a3b8">TEMPLATE|GENERATE</text>
    <text x="600" y="342" font-size="11" fill="#334155">copyProviderKey</text>
    <text x="600" y="360" font-size="11" fill="#334155">imageProviderKey</text><text x="805" y="360" text-anchor="end" font-size="9" fill="#94a3b8">? (optional override)</text>
    <text x="600" y="378" font-size="11" fill="#334155">additionalImageUrl</text><text x="805" y="378" text-anchor="end" font-size="9" fill="#94a3b8">Path A only</text>
    <text x="600" y="396" font-size="11" fill="#334155">referenceImageUrls[]</text><text x="805" y="396" text-anchor="end" font-size="9" fill="#94a3b8">Path B only</text>
  </g>

  <!-- DRAFT -->
  <g>
    <rect x="865" y="190" width="210" height="162" rx="8" fill="#fff" stroke="#cbd5e1" stroke-width="1.2"/>
    <path d="M865,198 Q865,190 873,190 L1067,190 Q1075,190 1075,198 L1075,216 L865,216 Z" fill="#0284c7"/>
    <text x="875" y="209" font-size="12" font-weight="700" fill="#fff">Draft</text>
    <text x="875" y="234" font-size="11" font-weight="700" fill="#0f172a">id</text><text x="1065" y="234" text-anchor="end" font-size="9" font-weight="700" fill="#0284c7">PK</text>
    <text x="875" y="252" font-size="11" fill="#334155">briefId</text><text x="1065" y="252" text-anchor="end" font-size="9" fill="#64748b">FK</text>
    <text x="875" y="270" font-size="11" fill="#334155">copyText</text>
    <text x="875" y="288" font-size="11" fill="#334155">imageUrl</text><text x="1065" y="288" text-anchor="end" font-size="9" fill="#94a3b8">MinIO ?</text>
    <text x="875" y="306" font-size="11" fill="#334155">htmlContent</text><text x="1065" y="306" text-anchor="end" font-size="9" fill="#94a3b8">current HTML</text>
    <text x="875" y="324" font-size="11" fill="#334155">templateId</text><text x="1065" y="324" text-anchor="end" font-size="9" fill="#94a3b8">FK ? (Path A)</text>
    <text x="875" y="342" font-size="11" fill="#334155">exportUrl · status</text><text x="1065" y="342" text-anchor="end" font-size="9" fill="#94a3b8">MinIO · DraftStatus</text>
  </g>

  <!-- POST -->
  <g>
    <rect x="865" y="400" width="210" height="162" rx="8" fill="#fff" stroke="#cbd5e1" stroke-width="1.2"/>
    <path d="M865,408 Q865,400 873,400 L1067,400 Q1075,400 1075,408 L1075,426 L865,426 Z" fill="#0284c7"/>
    <text x="875" y="419" font-size="12" font-weight="700" fill="#fff">Post</text>
    <text x="875" y="444" font-size="11" font-weight="700" fill="#0f172a">id</text><text x="1065" y="444" text-anchor="end" font-size="9" font-weight="700" fill="#0284c7">PK</text>
    <text x="875" y="462" font-size="11" fill="#334155">draftId</text><text x="1065" y="462" text-anchor="end" font-size="9" fill="#64748b">FK</text>
    <text x="875" y="480" font-size="11" fill="#334155">userId</text><text x="1065" y="480" text-anchor="end" font-size="9" fill="#64748b">FK</text>
    <text x="875" y="498" font-size="11" fill="#334155">channel</text><text x="1065" y="498" text-anchor="end" font-size="9" fill="#94a3b8">IG | LINKEDIN</text>
    <text x="875" y="516" font-size="11" fill="#334155">status</text><text x="1065" y="516" text-anchor="end" font-size="9" fill="#94a3b8">PostStatus</text>
    <text x="875" y="534" font-size="11" fill="#334155">scheduledAt · publishedAt</text>
    <text x="875" y="552" font-size="11" fill="#334155">platformId · errorReason</text>
  </g>

  <!-- DRAFTREVISION (new — AGUI undo) -->
  <g>
    <rect x="1040" y="550" width="210" height="144" rx="8" fill="#fff" stroke="#cbd5e1" stroke-width="1.2"/>
    <path d="M1040,558 Q1040,550 1048,550 L1242,550 Q1250,550 1250,558 L1250,576 L1040,576 Z" fill="#f59e0b"/>
    <text x="1050" y="569" font-size="12" font-weight="700" fill="#fff">DraftRevision</text>
    <text x="1050" y="594" font-size="11" font-weight="700" fill="#0f172a">id</text><text x="1230" y="594" text-anchor="end" font-size="9" font-weight="700" fill="#0284c7">PK</text>
    <text x="1050" y="612" font-size="11" fill="#334155">draftId</text><text x="1230" y="612" text-anchor="end" font-size="9" fill="#64748b">FK</text>
    <text x="1050" y="630" font-size="11" fill="#334155">revisionNumber</text>
    <text x="1050" y="648" font-size="11" fill="#334155">htmlSnapshot</text><text x="1230" y="648" text-anchor="end" font-size="9" fill="#94a3b8">full HTML</text>
    <text x="1050" y="666" font-size="11" fill="#334155">exportUrl</text><text x="1230" y="666" text-anchor="end" font-size="9" fill="#94a3b8">MinIO PNG</text>
    <text x="1050" y="684" font-size="11" fill="#334155">instruction · createdAt</text>
  </g>

  <!-- PROJECTCAMPAIGN (join) -->
  <g>
    <rect x="135" y="430" width="200" height="72" rx="8" fill="#fff" stroke="#94a3b8" stroke-width="1.2" stroke-dasharray="5,3"/>
    <path d="M135,438 Q135,430 143,430 L327,430 Q335,430 335,438 L335,456 L135,456 Z" fill="#94a3b8"/>
    <text x="145" y="449" font-size="12" font-weight="700" fill="#fff">ProjectCampaign</text>
    <text x="145" y="474" font-size="11" fill="#334155">projectId</text><text x="325" y="474" text-anchor="end" font-size="9" font-weight="700" fill="#64748b">PK · FK</text>
    <text x="145" y="492" font-size="11" fill="#334155">campaignId</text><text x="325" y="492" text-anchor="end" font-size="9" font-weight="700" fill="#64748b">PK · FK</text>
  </g>

  <!-- CAMPAIGNDRAFT (join) -->
  <g>
    <rect x="590" y="450" width="200" height="72" rx="8" fill="#fff" stroke="#94a3b8" stroke-width="1.2" stroke-dasharray="5,3"/>
    <path d="M590,458 Q590,450 598,450 L782,450 Q790,450 790,458 L790,476 L590,476 Z" fill="#94a3b8"/>
    <text x="600" y="469" font-size="12" font-weight="700" fill="#fff">CampaignDraft</text>
    <text x="600" y="494" font-size="11" fill="#334155">campaignId</text><text x="780" y="494" text-anchor="end" font-size="9" font-weight="700" fill="#64748b">PK · FK</text>
    <text x="600" y="512" font-size="11" fill="#334155">draftId</text><text x="780" y="512" text-anchor="end" font-size="9" font-weight="700" fill="#64748b">PK · FK</text>
  </g>

  <!-- ═══════════ BRAND KIT CLUSTER + CONFIG ═══════════ -->

  <!-- BRANDKIT -->
  <g>
    <rect x="45" y="620" width="230" height="130" rx="8" fill="#fff" stroke="#0891b2" stroke-width="1.4"/>
    <path d="M45,628 Q45,620 53,620 L267,620 Q275,620 275,628 L275,646 L45,646 Z" fill="#0891b2"/>
    <text x="55" y="639" font-size="12" font-weight="700" fill="#fff">BrandKit</text>
    <text x="55" y="664" font-size="11" font-weight="700" fill="#0f172a">id</text><text x="265" y="664" text-anchor="end" font-size="9" font-weight="700" fill="#0284c7">PK</text>
    <text x="55" y="682" font-size="11" fill="#334155">name</text>
    <text x="55" y="700" font-size="11" fill="#334155">colors · fonts · logoUrl</text><text x="265" y="700" text-anchor="end" font-size="9" fill="#94a3b8">JSON ?</text>
    <text x="55" y="718" font-size="11" fill="#334155">isDefault</text><text x="265" y="718" text-anchor="end" font-size="9" fill="#94a3b8">system default</text>
    <text x="55" y="736" font-size="11" fill="#334155">isDeleted · deletedAt</text>
  </g>

  <!-- BRANDKITTEMPLATE (new) -->
  <g>
    <rect x="280" y="820" width="220" height="90" rx="8" fill="#fff" stroke="#cbd5e1" stroke-width="1.2"/>
    <path d="M280,828 Q280,820 288,820 L492,820 Q500,820 500,828 L500,846 L280,846 Z" fill="#0891b2"/>
    <text x="290" y="841" font-size="12" font-weight="700" fill="#fff">BrandKitTemplate</text>
    <text x="290" y="866" font-size="11" font-weight="700" fill="#0f172a">id</text><text x="490" y="866" text-anchor="end" font-size="9" font-weight="700" fill="#0284c7">PK</text>
    <text x="290" y="884" font-size="11" fill="#334155">brandKitId · name</text><text x="490" y="884" text-anchor="end" font-size="9" fill="#64748b">FK</text>
    <text x="290" y="902" font-size="11" fill="#334155">htmlTemplate</text><text x="490" y="902" text-anchor="end" font-size="9" fill="#94a3b8">Text</text>
  </g>

  <!-- BRANDKITPROMPT -->
  <g>
    <rect x="335" y="640" width="220" height="90" rx="8" fill="#fff" stroke="#cbd5e1" stroke-width="1.2"/>
    <path d="M335,648 Q335,640 343,640 L547,640 Q555,640 555,648 L555,666 L335,666 Z" fill="#0891b2"/>
    <text x="345" y="659" font-size="12" font-weight="700" fill="#fff">BrandKitPrompt</text>
    <text x="345" y="684" font-size="11" font-weight="700" fill="#0f172a">id</text><text x="545" y="684" text-anchor="end" font-size="9" font-weight="700" fill="#0284c7">PK</text>
    <text x="345" y="702" font-size="11" fill="#334155">brandKitId</text><text x="545" y="702" text-anchor="end" font-size="9" fill="#64748b">FK</text>
    <text x="345" y="720" font-size="11" fill="#334155">content · version</text><text x="545" y="720" text-anchor="end" font-size="9" fill="#94a3b8">rollback EC-13</text>
  </g>

  <!-- BRANDKITARTIFACT -->
  <g>
    <rect x="335" y="880" width="220" height="90" rx="8" fill="#fff" stroke="#cbd5e1" stroke-width="1.2"/>
    <path d="M335,888 Q335,880 343,880 L547,880 Q555,880 555,888 L555,906 L335,906 Z" fill="#0891b2"/>
    <text x="345" y="901" font-size="12" font-weight="700" fill="#fff">BrandKitArtifact</text>
    <text x="345" y="926" font-size="11" font-weight="700" fill="#0f172a">id</text><text x="545" y="926" text-anchor="end" font-size="9" font-weight="700" fill="#0284c7">PK</text>
    <text x="345" y="944" font-size="11" fill="#334155">brandKitId</text><text x="545" y="944" text-anchor="end" font-size="9" fill="#64748b">FK</text>
    <text x="345" y="962" font-size="11" fill="#334155">type · name · url · feedToAI</text>
  </g>

  <!-- AVAILABLEPROVIDER (config) -->
  <g>
    <rect x="595" y="640" width="215" height="90" rx="8" fill="#fff" stroke="#cbd5e1" stroke-width="1.2"/>
    <path d="M595,648 Q595,640 603,640 L802,640 Q810,640 810,648 L810,666 L595,666 Z" fill="#475569"/>
    <text x="605" y="659" font-size="12" font-weight="700" fill="#fff">AvailableProvider</text>
    <text x="605" y="684" font-size="11" font-weight="700" fill="#0f172a">id</text><text x="800" y="684" text-anchor="end" font-size="9" font-weight="700" fill="#0284c7">PK</text>
    <text x="605" y="702" font-size="11" fill="#334155">slot · providerKey</text><text x="800" y="702" text-anchor="end" font-size="9" fill="#94a3b8">COPY | IMAGE</text>
    <text x="605" y="720" font-size="11" fill="#334155">isEnabled · isDefault</text><text x="800" y="720" text-anchor="end" font-size="9" fill="#94a3b8">encrypted key</text>
  </g>

  <!-- ═══════════ LEGEND ═══════════ -->
  <g>
    <rect x="45" y="1000" width="1110" height="40" rx="8" fill="#fff" stroke="#e2e8f0" stroke-width="1"/>
    <text x="61" y="1020" font-size="10" fill="#475569"><tspan font-weight="700">PK</tspan> primary key · <tspan font-weight="700">FK</tspan> foreign key · <tspan font-weight="700">?</tspan> nullable · <tspan font-weight="700">1 —— ∞</tspan> one-to-many</text>
    <text x="700" y="1020" font-size="10" fill="#475569"><tspan font-weight="700">Brand kit precedence:</tspan> Campaign → Project → default · <tspan font-weight="700">New: DraftRevision</tspan> tracks AGUI edits (htmlSnapshot, exportUrl) for undo</text>
  </g>

</svg>